 Format : AVI
 Format/Info : Audio Video Interleave
 File size : 1.39 GiB
 Duration : 1h 33mn
 Overall bit rate : 2 132 Kbps


Format : MPEG-4 Visual
 Format profile : Advanced Simple@L5
 Format settings, BVOP : 1
 Format settings, QPel : No
 Format settings, GMC : No warppoints
 Format settings, Matrix : Custom
 Codec ID : XVID
 Codec ID/Hint : XviD
 Duration : 1h 33mn
 Bit rate : 1 738 Kbps
 Width : 688 pixels
 Height : 384 pixels
 Display aspect ratio : 16:9
 Frame rate : 23.976 fps
 Color space : YUV
 Chroma subsampling : 4:2:0
 Bit depth : 8 bits
 Scan type : Progressive
 Compression mode : Lossy
 Bits/(Pixel*Frame) : 0.274
 Stream size : 1.14 GiB (82%)
 Writing library : XviD 1.2.1 (UTC 2008-12-04)

 Format : AC-3
 Format/Info : Audio Coding 3
 Mode extension : CM (complete main)
 Format settings, Endianness : Big
 Codec ID : 2000
 Duration : 1h 33mn
 Bit rate mode : Constant
 Bit rate : 384 Kbps
 Channel(s) : 6 channels
 Channel positions : Front: L C R, Side: L R, LFE
 Sampling rate : 48.0 KHz
 Bit depth : 16 bits
 Compression mode : Lossy
 Stream size : 257 MiB (18%)
 Alignment : Split accross interleaves
 Interleave, duration : 42 ms (1.00 video frame)
 Interleave, preload duration : 500 ms
